<svg xmlns="http://www.w3.org/2000/svg"
     xmlns:xlink="http://www.w3.org/1999/xlink"
     width="16" height="16" fill="black" viewBox="0 0 16 16">
  <defs>
    <path id="a"
          d="M0 0l-1.5-3a.35.35 0 0 1 .4-.45l1.11.3 1.11-.3a.35.35 0 0 1 .4.45z" />
    <g id="e">
      <path fill-rule="evenodd"
            d="M7.97 4.5a4 4 0 1 0-3.97 3.5v-1a3 3 0 0 1-2.95-2.5zm-1.02-1a3 3 0 0 0-5.9 0z"
            transform="rotate(-45 4 4)" />
      <use xlink:href="#a" x="7.75" y="5" transform="rotate(-132 7.75 5)" />
    </g>

    <g id="c">
      <path d="M8 15a7 7 0 1 1 7-7a.5 0.75 0 1 1-1 0a6 6 0 1 0-6 6z"
            transform="rotate(45, 8, 8)"/>
      <use xlink:href="#a" x="4.8" y="14" transform="rotate(-42 4.8 14)"/>
    </g>
  </defs>

  <use xlink:href="#e" x="4" y="4" />
  <use xlink:href="#c" x="0" y="0" />

</svg>
