<svg xmlns="http://www.w3.org/2000/svg"
     xmlns:xlink="http://www.w3.org/1999/xlink"
     width="228" height="72" fill="currentColor" viewBox="0 0 57 18">
  <defs>
    <path id="arrow"
          d="M0 0-1-2a.15.15 0 0 1 .15-.2l.88.2.88-.2a.15.15 0 0 1 .15.2z" />
    <g id="D">
      <path fill-rule="evenodd"
            d="M0 0a6.2 6.2 0 1 1 0 12v-8zM.5.5a5.615 5.615 0 1 1 0 11z" />
      <use xlink:href="#arrow" x="0.25" y="12" />
      <use xlink:href="#arrow" x="0.25" y="12" transform="rotate(94 .25 11.75)" />
    </g>
    <g id="e">
      <path fill-rule="evenodd"
            d="M8 4.25a4 4 0 1 0-4 3.75v-.5a3.5 3.5 0 0 1-3.49-3.25zm-.51-.5a3.5 3.5 0 0 0-6.98 0z"
            transform="rotate(-45 4 4)" />
      <use xlink:href="#arrow" x="7.1" y="6.36" transform="rotate(-125 7.1 6.36)" />
      <use xlink:href="#arrow" x="1.2" y="6.76" transform="rotate(45 1.2 6.76)" />
    </g>
    <g id="c">
      <path d="M8 4.25a4 4 0 1 0-4 3.75v-.5a3.5 3.5 0 1 1 3.5-3.25z"
            transform="rotate(-45 4 4) "/>
      <use xlink:href="#arrow" x="7.1" y="6.36" transform="rotate(-125 7.1 6.36)" />
    </g>
    <g id="y">
      <path d="M.7 12Q5.5 8 7.5.5h-.55Q5 8 0 12zM0 0Q1.65 4 4.4 7.4l.35-.35Q2.0 3.65.55 0z" />
      <use xlink:href="#arrow" x="7.5" y="-0.2" transform="rotate(-162 7.5 -.2)" />
      <use xlink:href="#arrow" x="4.6" y="7.3" transform="rotate(-36 4.6 7.3)" />
    </g>
    <g id="l">
      <path d="M0 0v12h2v-.5h-1.5v-11.5z" />
      <use xlink:href="#arrow" x="3" y="11.75" transform="rotate(-90 3 11.75)" />
    </g>
  </defs>

  <path style="fill:#02303a"
        d="M85.11,4.18a14.27,14.27,0,0,0-19.83-.34,1.38,1.38,0,0,0,0,2L67,7.6a1.36,1.36,0,0,0,1.78.12A8.18,8.18,0,0,1,79.5,20.06C68.17,31.38,53.05-.36,18.73,16a4.65,4.65,0,0,0-2,6.54l5.89,10.17a4.64,4.64,0,0,0,6.3,1.73l.14-.08-.11.08L31.53,33a60.29,60.29,0,0,0,8.22-6.13,1.44,1.44,0,0,1,1.87-.06h0a1.34,1.34,0,0,1,.06,2A61.61,61.61,0,0,1,33,35.34l-.09,0-2.61,1.46a7.34,7.34,0,0,1-3.61.94,7.45,7.45,0,0,1-6.47-3.71l-5.57-9.61C4,32-2.54,46.56,1,65a1.36,1.36,0,0,0,1.33,1.11H8.61A1.36,1.36,0,0,0,10,64.87a9.29,9.29,0,0,1,18.42,0,1.35,1.35,0,0,0,1.34,1.19H35.9a1.36,1.36,0,0,0,1.34-1.19,9.29,9.29,0,0,1,18.42,0A1.36,1.36,0,0,0,57,66.06H63.1a1.36,1.36,0,0,0,1.36-1.34c.14-8.6,2.46-18.48,9.07-23.43C96.43,24.16,90.41,9.48,85.11,4.18ZM61.76,30.05l-4.37-2.19h0a2.74,2.74,0,1,1,4.37,2.2Z"
        transform="scale(.15) translate(0,25)"
        opacity=".2" />

  <use xlink:href="#D" x="7" y="1" />
  <use xlink:href="#e" x="15.5" y="5" />
  <use xlink:href="#c" x="23" y="5" />
  <use xlink:href="#y" x="30.5" y="5" />
  <use xlink:href="#c" x="38.5" y="5" />
  <use xlink:href="#l" x="46.5" y="1" />
  <use xlink:href="#e" x="49" y="5" />

</svg>
