<svg xmlns="http://www.w3.org/2000/svg"
     xmlns:xlink="http://www.w3.org/1999/xlink"
     width="228" height="72" fill="white" viewBox="0 0 57 18">
  <defs>
    <path id="arrow"
          d="M0 0-1-2a.15.15 0 0 1 .15-.2l.88.2.88-.2a.15.15 0 0 1 .15.2z" />
    <g id="D">
      <path fill-rule="evenodd"
            d="M0 0a6.2 6.2 0 1 1 0 12v-8zM.5.5a5.615 5.615 0 1 1 0 11z" />
      <use xlink:href="#arrow" x="0.25" y="12" />
      <use xlink:href="#arrow" x="0.25" y="12" transform="rotate(94 .25 11.75)" />
    </g>
    <g id="e">
      <path fill-rule="evenodd"
            d="M8 4.25a4 4 0 1 0-4 3.75v-.5a3.5 3.5 0 0 1-3.49-3.25zm-.51-.5a3.5 3.5 0 0 0-6.98 0z"
            transform="rotate(-45 4 4)" />
      <use xlink:href="#arrow" x="7.1" y="6.36" transform="rotate(-125 7.1 6.36)" />
      <use xlink:href="#arrow" x="1.2" y="6.76" transform="rotate(45 1.2 6.76)" />
    </g>
    <g id="c">
      <path d="M8 4.25a4 4 0 1 0-4 3.75v-.5a3.5 3.5 0 1 1 3.5-3.25z"
            transform="rotate(-45 4 4) "/>
      <use xlink:href="#arrow" x="7.1" y="6.36" transform="rotate(-125 7.1 6.36)" />
    </g>
    <g id="y">
      <path d="M.7 12Q5.5 8 7.5.5h-.55Q5 8 0 12zM0 0Q1.65 4 4.4 7.4l.35-.35Q2.0 3.65.55 0z" />
      <use xlink:href="#arrow" x="7.5" y="-0.2" transform="rotate(-162 7.5 -.2)" />
      <use xlink:href="#arrow" x="4.6" y="7.3" transform="rotate(-36 4.6 7.3)" />
    </g>
    <g id="l">
      <path d="M0 0v12h2v-.5h-1.5v-11.5z" />
      <use xlink:href="#arrow" x="3" y="11.75" transform="rotate(-90 3 11.75)" />
    </g>
  </defs>

  <g font-style="oblique" font-family="Verdana" font-weight="bold" transform="scale(.145)" opacity="0.4">
    <text font-size="96" transform="scale(0.943,1.07)" x="0" y="88" style="fill:#ced5d7">m</text>
  </g>

  <use xlink:href="#D" x="7" y="1" />
  <use xlink:href="#e" x="15.5" y="5" />
  <use xlink:href="#c" x="23" y="5" />
  <use xlink:href="#y" x="30.5" y="5" />
  <use xlink:href="#c" x="38.5" y="5" />
  <use xlink:href="#l" x="46.5" y="1" />
  <use xlink:href="#e" x="49" y="5" />

</svg>
